PathFileType	4	(X/Y/Z)	Patient4_TMGait_0pt5_02_right_32.trc.trc
DataRate	CameraRate	NumFrames	NumMarkers	Units	OrigDataRate	OrigDataStartFrame	OrigNumFrames
75.268817204301	75.268817204301	4	33	mm	75.268817204301	1	       141
Frame#	Time	Sacral			L.Shoulder			Chest			R.Shoulder			Neck			R.ASIS			L.ASIS			R.Thigh.Superior			R.Thigh.Lateral			R.Thigh.Inferior			R.Patella			L.Thigh.Superior			L.Thigh.Lateral			L.Thigh.Inferior			L.Patella			L.Shank.Superior			L.Shank.Lateral			L.Shank.Inferior			R.Shank.Superior			R.Shank.Lateral			R.Shank.Inferior			R.Heel			R.Midfoot.Superior			R.Midfoot.Lateral			R.Toe			L.Heel			L.Midfoot.Lateral			L.Midfoot.Superior			L.Toe			L.Elbow			L.Wrist			R.Elbow			R.Wrist			
		X1	Y1	Z1	X2	Y2	Z2	X3	Y3	Z3	X4	Y4	Z4	X5	Y5	Z5	X6	Y6	Z6	X7	Y7	Z7	X8	Y8	Z8	X9	Y9	Z9	X10	Y10	Z10	X11	Y11	Z11	X12	Y12	Z12	X13	Y13	Z13	X14	Y14	Z14	X15	Y15	Z15	X16	Y16	Z16	X17	Y17	Z17	X18	Y18	Z18	X19	Y19	Z19	X20	Y20	Z20	X21	Y21	Z21	X22	Y22	Z22	X23	Y23	Z23	X24	Y24	Z24	X25	Y25	Z25	X26	Y26	Z26	X27	Y27	Z27	X28	Y28	Z28	X29	Y29	Z29	X30	Y30	Z30	X31	Y31	Z31	X32	Y32	Z32	X33	Y33	Z33	

1	41.820000000000	710.404821227567	1014.083479012158	438.280598537212	898.004528075724	1428.510636136795	238.635098350246	997.911589338386	1365.969966351300	404.808584690314	912.808841989039	1450.904641445471	573.720576824324	896.735060836853	1497.724248575997	386.346867780144	931.960857955875	948.323377238155	559.389277332739	927.208054938315	962.978299557196	286.421496879824	1015.093125877666	777.281844235756	533.611441095411	972.178984363272	657.285837568063	604.977858653748	1065.349218959795	618.192535394708	529.376928646079	1082.876204893119	503.620981559597	551.679545801812	972.271803359029	752.845588342802	318.833933848458	883.929048924149	638.718836335367	261.458381217244	963.559610508666	560.193215063149	328.959071073188	961.892248402657	491.609921170334	341.321184283038	938.546140430455	420.513936449608	333.266118639931	855.223741247745	302.585277078654	280.850187114785	905.210867150653	195.289616025067	358.250832914182	1005.927672615994	429.344152118214	554.110413120477	882.297173590658	389.689388714321	609.651090453007	867.545664831732	281.943648806424	558.125327326470	667.370845334241	229.884234444137	521.209375263863	829.808966933561	157.830503567341	567.962588248043	719.783483976420	168.063230369384	598.447967863146	884.249964444316	41.553800984314	600.486446425275	776.253351373275	38.355661543489	398.080662904412	854.569572157212	35.453101084101	320.945361478796	936.255308805388	96.466403438759	351.222286353179	1066.152054121842	43.774685732427	330.931053554494	884.089758572621	1077.470941656006	110.912131208870	1040.987974426638	867.378392334020	102.111372306260	866.648594895915	1115.182191822458	718.092687038430	924.301853262633	859.764708483094	717.988697655105	
2	41.833285714286	709.177889362008	1014.717755418129	436.946258832962	900.298612952704	1428.546078769133	238.475328359532	998.317962503399	1365.841780911056	405.612744498949	911.844994179648	1451.069838884211	573.631189776166	897.598954227240	1497.846476514537	386.193923942979	930.637805470575	948.881382386916	559.627424657651	927.115169874423	963.088000398744	286.659626462361	1015.355863761669	779.824047617517	533.124578357018	974.676686044229	659.555109698175	604.975012419401	1067.285606934467	621.260590476675	528.464872050471	1087.266316011746	508.187558706969	551.097167550276	969.760623879605	751.868946167314	319.122782907709	880.091645739846	638.766319206356	261.097470530109	958.317923141796	559.517001742383	329.053319602835	955.795809919238	491.051156164037	341.289402782235	932.454894069502	420.273545118473	333.104630188508	848.880024536136	302.571451141084	280.514817107271	898.393367615363	195.165153090191	358.118576469824	1013.638459220227	431.673328734570	554.379502673391	893.102913106568	386.169055557003	610.907678013651	883.428902203756	277.939419846404	559.907113870096	686.551120790210	215.613494512361	525.026759655773	852.141371485707	152.361171821207	569.952684076837	742.594165591401	157.113392188873	601.888692239634	912.849590477584	39.788308496542	602.584285701196	769.157021037191	38.320576511731	398.046514138745	847.479058335263	35.402133445850	320.906740009401	929.146878651929	96.423528695264	351.173352805690	1059.061392840067	43.802333789841	330.896489284611	888.303491872702	1078.459312630274	108.569353105533	1051.988036166423	874.387887474254	98.433521747905	854.585816935449	1118.720599686342	718.991248456846	901.677067430497	862.085236230027	724.013249700586	
3	41.846571428571	707.983027232291	1015.318837595113	435.674021225752	902.559582065853	1428.546679060997	238.339390148972	998.723465905174	1365.685678685028	406.421890687531	910.910951345402	1451.220298935262	573.557288136218	898.467407648489	1497.941200738151	386.060217714719	929.311184481897	949.402807380059	559.887591346503	926.993879290407	963.171960518541	286.920059065469	1015.511475421158	782.234728553052	532.678188024732	976.949056453682	661.699023355049	605.001609218729	1068.973825859436	624.142267312104	527.609808581088	1091.353817737297	512.631942030352	550.569836009217	967.287822265356	750.900447888561	319.413952448551	876.302341557413	638.801964309601	260.775959885261	953.158913194937	558.833243900499	329.149426338091	949.789552301726	490.490891974670	341.277600750155	926.442230354438	420.022450187511	332.966727592991	842.604834877428	302.559423706475	280.196820832025	891.630393910209	195.033067931485	357.997900906598	1021.136333001138	433.906738053597	554.691047595862	903.827603893056	382.512429797131	612.231693905675	899.340934938800	273.860832055071	561.723639822511	705.991455344272	201.150922602235	528.846465897612	874.639819796725	146.897746496661	571.971664440923	765.651403847609	146.077807574568	605.334373105192	941.643520054059	38.171109780820	604.689701057823	762.106640957526	38.288574302499	398.010836467302	840.432393979143	35.352526738148	320.870488023658	922.083451506591	96.378380901882	351.129566069793	1052.015735493237	43.824321806097	330.864804043449	892.494226697305	1079.403810629812	106.304597033796	1062.859888241670	881.338502355703	94.848152576471	842.673807693308	1122.272026666915	719.819237002755	879.378612923139	864.524392525137	729.818875406386	
4	41.859857142857	706.856946769034	1015.855440409865	434.526140494034	904.754609111088	1428.482585634077	238.261187608386	999.131386429822	1365.473976328610	407.247322655935	910.048167837283	1451.338637696468	573.525403953267	899.347061249358	1497.982351334681	385.975552104156	927.988738336672	949.846747635586	560.197790508308	926.843183879979	963.214253439106	287.221062264708	1015.443146200705	784.351888020627	532.335303514951	978.745310677643	663.576239612711	605.104129571310	1070.161535266325	626.636156158011	526.889700873089	1094.814071841103	516.804018786103	550.152511800628	964.885561142414	749.947151106585	319.721321075325	872.609798225016	638.817041354903	260.525420492292	948.156071456151	558.138200953465	329.254416134245	943.958241503923	489.929551675373	341.301609876332	920.580702343596	419.753403626831	332.872472088610	836.461419000499	302.550815691135	279.912419046691	884.972990231102	194.887632507328	357.899700253806	1028.172680006139	435.960663679021	555.088185781735	914.357359277077	378.643165058619	613.671913414074	915.242771608926	269.728985584294	563.588113941804	725.908693464207	186.485236564388	532.630186448517	897.366137978849	141.581875898297	574.027649858089	789.122125531149	135.031542545369	608.747600083282	970.663202258263	36.983870495840	606.778801901119	755.148134260353	38.263136486365	397.973202344758	833.473271180219	35.306569822590	320.838579123302	915.109743989410	96.329150060967	351.095735079094	1045.059423317073	43.835328600708	330.838828332224	896.617334198182	1080.262804527618	104.207123058178	1073.443515708066	888.171675561809	91.476256272020	831.107293028437	1125.825191073835	720.508043604208	857.805151051060	867.159067143269	735.174570711566	
